<?xml version="1.0" encoding="UTF-8"?>
<svg id="Warstwa_1" data-name="Warstwa 1" xmlns="http://www.w3.org/2000/svg" viewBox="0 0 32 32">
  <defs>
    <style>
      .cls-1 {
        fill: #fff;
        font-family: Zelek-Bold, Zelek;
        font-size: 5.95px;
        font-weight: 700;
      }

      .cls-2 {
        fill: #161211;
      }
    </style>
  </defs>
  <rect class="cls-2" width="32" height="32"/>
  <text class="cls-1" transform="translate(18.95 25.26) rotate(175.65)"><tspan x="0" y="0">M</tspan></text>
  <text class="cls-1" transform="translate(13.18 25.26) rotate(-150.62)"><tspan x="0" y="0">A</tspan></text>
  <text class="cls-1" transform="translate(8.64 22.18) rotate(-119.56)"><tspan x="0" y="0">R</tspan></text>
  <text class="cls-1" transform="translate(6.52 17.83) rotate(-89.07)"><tspan x="0" y="0">B</tspan></text>
  <text class="cls-1" transform="translate(6.97 12.75) rotate(-60.44)"><tspan x="0" y="0">E</tspan></text>
  <text class="cls-1" transform="translate(9.54 8.93) rotate(-33.18)"><tspan x="0" y="0">L</tspan></text>
  <text class="cls-1" transform="translate(13.38 6.65) rotate(-2.35)"><tspan x="0" y="0">M</tspan></text>
  <text class="cls-1" transform="translate(19.13 6.84) rotate(31.28)"><tspan x="0" y="0">A</tspan></text>
  <text class="cls-1" transform="translate(23.55 10.04) rotate(62.18)"><tspan x="0" y="0">R</tspan></text>
  <text class="cls-1" transform="translate(25.52 14.5) rotate(92.17)"><tspan x="0" y="0">B</tspan></text>
  <text class="cls-1" transform="translate(24.92 19.52) rotate(121.29)"><tspan x="0" y="0">E</tspan></text>
  <text class="cls-1" transform="translate(22.23 23.28) rotate(148.72)"><tspan x="0" y="0">L</tspan></text>
</svg>